<?xml version='1.0' encoding='utf-8'?>
<svg xmlns="http://www.w3.org/2000/svg" version="1.0" width="374" height="92" viewBox="0 0 374 92" preserveAspectRatio="xMidYMid meet">
<g transform="translate(-57 -146)"><metadata>
Created by potrace 1.16, written by Peter Selinger 2001-2019
</metadata>
<g transform="translate(0.000000,345.000000) scale(0.100000,-0.100000)" fill="rgb(255, 255, 255)" stroke="none">
<path d="M2014 1960 c-57 -23 -103 -147 -144 -385 -55 -323 -92 -431 -136 -395 -25 21 -53 84 -106 235 -86 245 -146 335 -224 335 -71 0 -103 -29 -208 -187 -63 -96 -77 -111 -125 -135 -54 -28 -55 -28 -268 -28 l-213 0 0 -35 0 -35 218 0 c263 0 297 7 370 78 26 26 65 76 87 112 90 153 132 180 178 118 37 -49 52 -83 101 -224 76 -223 106 -278 169 -311 65 -33 133 21 167 135 11 37 35 150 54 252 19 102 41 215 50 253 19 79 52 150 69 144 22 -7 47 -63 83 -192 88 -316 126 -408 191 -465 29 -26 42 -30 91 -30 37 0 66 6 80 16 22 15 25 15 46 -5 15 -14 35 -21 64 -21 l42 0 0 125 0 125 -29 0 c-24 0 -35 -9 -61 -50 -17 -27 -47 -63 -66 -80 -108 -94 -160 -26 -264 345 -58 207 -75 249 -116 284 -35 31 -62 37 -100 21z" />
<path d="M2700 1315 l0 -125 795 0 795 0 0 125 0 125 -795 0 -795 0 0 -125z" />
</g>
</g></svg>